<svg width="256" height="256" viewBox="0 0 256 256" fill="none" xmlns="http://www.w3.org/2000/svg">
<rect width="256" height="256" fill="#151515"/>
<path d="M70.7812 131.375C82.3438 115.5 97.4375 99.0312 116.062 81.9688C113 79.4688 109.75 78.2188 106.312 78.2188C101.438 78.2188 91.125 81.4688 75.375 87.9688L97.9688 53.5625C116.156 55.4375 133.062 56.375 148.688 56.375C164.375 56.375 179.344 55.4375 193.594 53.5625C186.656 69.5625 181.844 80.75 179.156 87.125C172.219 84.25 165 82 157.5 80.375L158.25 157.344C147.188 158.594 136.719 162.625 126.844 169.438C134.844 176 144.438 179.281 155.625 179.281C166.812 179.281 179 175.844 192.188 168.969C191.938 173.219 191.75 177.469 191.625 181.719C157.25 197.531 130.688 200.062 111.938 189.312C93.1875 178.562 79.4688 159.25 70.7812 131.375ZM125.625 91.7188C115.938 100.844 110.219 110.281 108.469 120.031C107.844 123.344 107.531 127.312 107.531 131.938C107.531 136.562 108.719 141.812 111.094 147.688C113.469 153.5 116.531 158.594 120.281 162.969C124.781 158.531 127.156 151.688 127.406 142.438C127.844 125.188 128.062 113.5 128.062 107.375C128.062 101.25 127.25 96.0312 125.625 91.7188Z" fill="#FAF9F6"/>
</svg>
